<svg width="55" height="73" viewBox="0 0 55 73" fill="none" xmlns="http://www.w3.org/2000/svg">
<path d="M53.7011 1H1V71.7012H53.7011V1Z" stroke="#59738C" stroke-width="2" stroke-linecap="round" stroke-linejoin="round"/>
<path d="M45.0142 20.3057H9.68384V26.5049H45.0142V20.3057Z" stroke="#59738C" stroke-width="2" stroke-linecap="round" stroke-linejoin="round"/>
<path d="M41.3972 52.3953H13.4055C13.2292 52.3969 13.0595 52.3287 12.9334 52.2055C12.8074 52.0823 12.7353 51.9142 12.7329 51.7381V31.7063C12.7329 31.8885 12.7837 33.9769 14.9031 38.3238C14.9031 38.3238 16.4845 40.8662 14.4069 40.8662H42.0697" stroke="#59738C" stroke-width="2" stroke-linecap="round" stroke-linejoin="round"/>
<path d="M14.4069 40.8662C16.4994 40.8662 14.9031 38.3238 14.9031 38.3238C12.7837 33.9798 12.7449 31.8885 12.7449 31.7063" stroke="#59738C" stroke-width="2" stroke-linecap="round" stroke-linejoin="round"/>
<path d="M15.1364 46.6294C16.2514 46.6294 15.1991 44.7413 15.1991 44.7413C13.1814 42.1361 12.7479 40.8574 12.7479 40.8574H42.0848" stroke="#59738C" stroke-width="2" stroke-linecap="round" stroke-linejoin="round"/>
<path d="M42.0697 46.6294H12.7449C12.7449 46.6294 13.1783 47.9021 15.1961 50.5133C15.1961 50.5133 16.2483 52.4044 15.1333 52.4044" stroke="#59738C" stroke-width="2" stroke-linecap="round" stroke-linejoin="round"/>
<path d="M43.4808 40.8665H43.2895H42.0699H41.4182" stroke="#59738C" stroke-width="2" stroke-linecap="round" stroke-linejoin="round"/>
<path d="M42.0698 40.8665C42.4435 41.4938 42.9905 42.8711 43.8634 44.7503C43.8634 44.7503 44.9156 46.6385 43.8006 46.6385" stroke="#59738C" stroke-width="2" stroke-linecap="round" stroke-linejoin="round"/>
<path d="M40.7456 52.3954H43.8066C44.9216 52.3954 43.8694 50.5042 43.8694 50.5042C43.1938 48.9447 42.4435 47.2597 42.0758 46.6204" stroke="#59738C" stroke-width="2" stroke-linecap="round" stroke-linejoin="round"/>
<path d="M41.4182 46.6294H42.0699H43.8066" stroke="#59738C" stroke-width="2" stroke-linecap="round" stroke-linejoin="round"/>
<path d="M12.7329 26.5049V31.7063" stroke="#59738C" stroke-width="2" stroke-linecap="round" stroke-linejoin="round"/>
<path d="M41.6153 26.511V31.6974C41.6153 31.6974 41.5645 33.7738 43.7856 38.3299C43.7856 38.3299 45.3669 40.8723 43.2894 40.8723" stroke="#59738C" stroke-width="2" stroke-linecap="round" stroke-linejoin="round"/>
<path d="M38.0164 26.5049V44.7232" stroke="#59738C" stroke-width="2" stroke-linecap="round" stroke-linejoin="round"/>
<path d="M39.0537 45.7571C39.0537 45.1862 38.5906 44.7234 38.0194 44.7234C37.4482 44.7234 36.9851 45.1862 36.9851 45.7571V46.9342C36.9851 47.5051 37.4482 47.9679 38.0194 47.9679C38.5906 47.9679 39.0537 47.5051 39.0537 46.9342V45.7571Z" fill="white" stroke="#59738C" stroke-width="2" stroke-linecap="round" stroke-linejoin="round"/>
<path d="M53.7011 10.8381L48.7778 5.91757L43.8574 1H53.7011V10.8381Z" stroke="#59738C" stroke-width="2" stroke-linecap="round" stroke-linejoin="round"/>
</svg>
