<svg width="46" height="74" viewBox="0 0 46 74" fill="none" xmlns="http://www.w3.org/2000/svg">
<path d="M39.0001 40.9678C39.5001 40.4678 40.1878 40.586 40.8169 40.2668C43.753 38.777 42.4947 37.6064 42.4947 37.6064C36.8323 37.6064 37.2517 31.1152 37.2517 31.1152V19.0904V17.707V15.4723C37.2517 11.4286 35.6788 7.8105 33.0573 5.25656C30.4359 2.59621 26.8706 1 22.886 1C14.9167 1 8.62512 7.8105 8.62512 15.898V16.8557V19.8353V30.6895C8.62512 35.4781 4.64047 35.9038 4.01131 37.7128C3.48702 39.2026 7.00021 39.4678 7.50012 40.4678" stroke="#59738C" stroke-width="2" stroke-miterlimit="10" stroke-linecap="round" stroke-linejoin="round"/>
<path d="M23.0962 36.7552C20.6845 36.7552 19.4262 35.0526 19.4262 35.0526C19.4262 35.0526 17.0144 32.605 14.4978 30.5832C11.9812 28.5613 12.2957 23.7727 12.2957 23.7727C8.31108 22.3893 7.9965 16.3237 10.1985 15.2596C12.4006 14.1954 13.1346 17.9199 13.1346 17.9199C13.1346 17.9199 20.6845 16.5365 22.2574 11.8543C22.2574 11.8543 22.3622 10.2581 24.9837 11.003C27.6052 11.7479 33.3725 13.4505 33.1627 17.9199C33.1627 17.9199 33.8968 14.3018 36.0988 15.2596C38.3008 16.2173 37.9863 22.3893 34.0016 23.7727C34.0016 23.7727 34.3162 28.5613 31.7996 30.5832C29.2829 32.605 26.8712 35.0526 26.8712 35.0526C26.8712 35.0526 25.4032 36.7552 23.0962 36.7552Z" stroke="#59738C" stroke-width="2" stroke-miterlimit="10" stroke-linecap="round" stroke-linejoin="round"/>
<path d="M17.4336 38.6706V33.3499" stroke="#59738C" stroke-width="2" stroke-miterlimit="10" stroke-linecap="round" stroke-linejoin="round"/>
<path d="M20.2651 46.5453L17.4339 38.6707C17.4339 38.6707 14.8124 39.3091 13.5541 40.5861C13.2395 40.9053 13.0298 41.2246 12.8201 41.5438C12.1909 43.3529 11.7715 45.5876 11.7715 45.5876C11.7715 45.5876 12.4591 46.6517 15.5 46.5453" stroke="#59738C" stroke-width="2" stroke-miterlimit="10" stroke-linecap="round" stroke-linejoin="round"/>
<path d="M28.5488 38.6706V33.3499" stroke="#59738C" stroke-width="2" stroke-miterlimit="10" stroke-linecap="round" stroke-linejoin="round"/>
<path d="M30.6462 46.5453C33.6871 46.6517 34.2114 45.4811 34.2114 45.4811C34.2114 45.4811 33.7919 43.3528 33.1628 41.4374C33.0579 41.1181 32.8482 40.7989 32.4288 40.4797C31.0656 39.2027 28.549 38.5642 28.549 38.5642L25.7178 46.4388" stroke="#59738C" stroke-width="2" stroke-miterlimit="10" stroke-linecap="round" stroke-linejoin="round"/>
<path d="M4.5 66.3381H1V49.9503C1 46.1194 3.30691 42.8206 6.55755 41.3308C7.711 40.7987 8.96931 40.4795 10.3325 40.4795H13.5" stroke="#59738C" stroke-width="2" stroke-miterlimit="10" stroke-linecap="round" stroke-linejoin="round"/>
<path d="M41.342 46.5452H4.74609V69.4242H41.342V46.5452Z" stroke="#59738C" stroke-width="2" stroke-miterlimit="10" stroke-linecap="round" stroke-linejoin="round"/>
<path d="M38.8251 72.936H7.15762C5.27016 72.936 3.69727 71.3398 3.69727 69.4243H42.4952C42.3904 71.3398 40.8175 72.936 38.8251 72.936Z" stroke="#59738C" stroke-width="2" stroke-miterlimit="10" stroke-linecap="round" stroke-linejoin="round"/>
<path d="M23.0966 59.3149C23.8494 59.3149 24.4597 58.6955 24.4597 57.9315C24.4597 57.1675 23.8494 56.5481 23.0966 56.5481C22.3437 56.5481 21.7334 57.1675 21.7334 57.9315C21.7334 58.6955 22.3437 59.3149 23.0966 59.3149Z" stroke="#59738C" stroke-width="2" stroke-miterlimit="10" stroke-linecap="round" stroke-linejoin="round"/>
<path d="M41.5 66.3381H44.3811V49.9503C44.3811 44.7361 40.1867 40.4795 35.0486 40.4795L32.5 40.4678" stroke="#59738C" stroke-width="2" stroke-miterlimit="10" stroke-linecap="round" stroke-linejoin="round"/>
</svg>
