<svg width="73" height="72" viewBox="0 0 73 72" fill="none" xmlns="http://www.w3.org/2000/svg">
<path d="M4.03699 3.375H69.287V12.375H4.03699V3.375Z" fill="#12253B"/>
<path d="M46.787 32.625C47.3837 32.625 47.956 32.8621 48.378 33.284C48.7999 33.706 49.037 34.2783 49.037 34.875V39.375H64.787V16.875H8.53699V39.375H44.537V34.875C44.537 34.2783 44.774 33.706 45.196 33.284C45.618 32.8621 46.1903 32.625 46.787 32.625ZM33.287 32.625V23.625L42.287 28.125L33.287 32.625Z" fill="#12253B"/>
<path d="M62.537 46.125V60.615C62.526 61.0429 62.4544 61.4672 62.3244 61.875H69.287V43.875H60.287C60.8837 43.875 61.456 44.1121 61.878 44.534C62.2999 44.956 62.537 45.5283 62.537 46.125Z" fill="#12253B"/>
<path d="M36.0995 50.1323C36.4444 49.7795 36.8624 49.5066 37.3241 49.3329C37.7858 49.1591 38.2799 49.0887 38.7718 49.1266C39.2637 49.1644 39.7413 49.3097 40.1709 49.552C40.6006 49.7944 40.9719 50.128 41.2587 50.5294L44.537 55.125V43.875H4.03699V61.875H42.9924L35.546 50.6936L36.0995 50.1323Z" fill="#12253B"/>
<path d="M42.7899 27.1182L33.7899 22.6182C33.6183 22.5324 33.4277 22.492 33.2361 22.5007C33.0445 22.5093 32.8583 22.5669 32.6952 22.6677C32.5321 22.7686 32.3975 22.9095 32.3042 23.0771C32.2108 23.2446 32.1619 23.4333 32.162 23.625V32.625C32.1619 32.8168 32.2108 33.0054 32.3042 33.173C32.3975 33.3405 32.5321 33.4815 32.6952 33.5823C32.8583 33.6832 33.0445 33.7407 33.2361 33.7494C33.4277 33.7581 33.6183 33.7176 33.7899 33.6319L42.7899 29.1319C42.9771 29.0386 43.1346 28.895 43.2446 28.7171C43.3547 28.5392 43.413 28.3342 43.413 28.125C43.413 27.9159 43.3547 27.7108 43.2446 27.533C43.1346 27.3551 42.9771 27.2115 42.7899 27.1182ZM34.412 30.8048V25.4453L39.7715 28.125L34.412 30.8048Z" fill="#59738C"/>
<path d="M13.037 47.25H10.787C10.4886 47.25 10.2025 47.3685 9.99149 47.5795C9.78051 47.7905 9.66199 48.0766 9.66199 48.375C9.66199 48.6734 9.78051 48.9595 9.99149 49.1705C10.2025 49.3815 10.4886 49.5 10.787 49.5H13.037C13.3354 49.5 13.6215 49.3815 13.8325 49.1705C14.0435 48.9595 14.162 48.6734 14.162 48.375C14.162 48.0766 14.0435 47.7905 13.8325 47.5795C13.6215 47.3685 13.3354 47.25 13.037 47.25Z" fill="#59738C"/>
<path d="M31.037 47.25H17.537C17.2386 47.25 16.9525 47.3685 16.7415 47.5795C16.5305 47.7905 16.412 48.0766 16.412 48.375C16.412 48.6734 16.5305 48.9595 16.7415 49.1705C16.9525 49.3815 17.2386 49.5 17.537 49.5H31.037C31.3354 49.5 31.6215 49.3815 31.8325 49.1705C32.0435 48.9595 32.162 48.6734 32.162 48.375C32.162 48.0766 32.0435 47.7905 31.8325 47.5795C31.6215 47.3685 31.3354 47.25 31.037 47.25Z" fill="#59738C"/>
<path d="M13.037 51.75H10.787C10.4886 51.75 10.2025 51.8685 9.99149 52.0795C9.78051 52.2905 9.66199 52.5766 9.66199 52.875C9.66199 53.1734 9.78051 53.4595 9.99149 53.6705C10.2025 53.8815 10.4886 54 10.787 54H13.037C13.3354 54 13.6215 53.8815 13.8325 53.6705C14.0435 53.4595 14.162 53.1734 14.162 52.875C14.162 52.5766 14.0435 52.2905 13.8325 52.0795C13.6215 51.8685 13.3354 51.75 13.037 51.75Z" fill="#59738C"/>
<path d="M31.037 51.75H17.537C17.2386 51.75 16.9525 51.8685 16.7415 52.0795C16.5305 52.2905 16.412 52.5766 16.412 52.875C16.412 53.1734 16.5305 53.4595 16.7415 53.6705C16.9525 53.8815 17.2386 54 17.537 54H31.037C31.3354 54 31.6215 53.8815 31.8325 53.6705C32.0435 53.4595 32.162 53.1734 32.162 52.875C32.162 52.5766 32.0435 52.2905 31.8325 52.0795C31.6215 51.8685 31.3354 51.75 31.037 51.75Z" fill="#59738C"/>
<path d="M13.037 56.25H10.787C10.4886 56.25 10.2025 56.3685 9.99149 56.5795C9.78051 56.7905 9.66199 57.0766 9.66199 57.375C9.66199 57.6734 9.78051 57.9595 9.99149 58.1705C10.2025 58.3815 10.4886 58.5 10.787 58.5H13.037C13.3354 58.5 13.6215 58.3815 13.8325 58.1705C14.0435 57.9595 14.162 57.6734 14.162 57.375C14.162 57.0766 14.0435 56.7905 13.8325 56.5795C13.6215 56.3685 13.3354 56.25 13.037 56.25Z" fill="#59738C"/>
<path d="M31.037 56.25H17.537C17.2386 56.25 16.9525 56.3685 16.7415 56.5795C16.5305 56.7905 16.412 57.0766 16.412 57.375C16.412 57.6734 16.5305 57.9595 16.7415 58.1705C16.9525 58.3815 17.2386 58.5 17.537 58.5H31.037C31.3354 58.5 31.6215 58.3815 31.8325 58.1705C32.0435 57.9595 32.162 57.6734 32.162 57.375C32.162 57.0766 32.0435 56.7905 31.8325 56.5795C31.6215 56.3685 31.3354 56.25 31.037 56.25Z" fill="#59738C"/>
<path d="M69.287 2.25H4.03699C3.73862 2.25 3.45247 2.36853 3.24149 2.5795C3.03051 2.79048 2.91199 3.07663 2.91199 3.375V61.875C2.91199 62.1734 3.03051 62.4595 3.24149 62.6705C3.45247 62.8815 3.73862 63 4.03699 63H42.287C42.3181 62.9979 42.3485 62.9902 42.377 62.9775L42.8495 63.6862C43.2185 64.239 43.4144 64.8892 43.412 65.5537V68.625C43.412 68.9234 43.5305 69.2095 43.7415 69.4205C43.9525 69.6315 44.2386 69.75 44.537 69.75H60.287C60.5854 69.75 60.8715 69.6315 61.0825 69.4205C61.2935 69.2095 61.412 68.9234 61.412 68.625V66.6113C61.408 65.9464 61.604 65.2958 61.9745 64.7437L62.7282 63.63C62.8554 63.4262 62.9718 63.2159 63.077 63H69.287C69.5854 63 69.8715 62.8815 70.0825 62.6705C70.2935 62.4595 70.412 62.1734 70.412 61.875V3.375C70.412 3.07663 70.2935 2.79048 70.0825 2.5795C69.8715 2.36853 69.5854 2.25 69.287 2.25ZM61.412 60.5812C61.398 61.2223 61.203 61.8463 60.8495 62.3813L60.107 63.495C59.4891 64.4167 59.1601 65.5016 59.162 66.6113V67.5H45.662V65.5537C45.6639 64.4441 45.3349 63.3592 44.717 62.4375L36.9882 50.8275C37.2172 50.621 37.4861 50.4635 37.7783 50.3649C38.0704 50.2662 38.3797 50.2284 38.687 50.2537C39.0148 50.2763 39.3335 50.3718 39.6196 50.5333C39.9057 50.6949 40.1521 50.9184 40.3407 51.1875L43.6257 55.7775C43.7617 55.9747 43.9584 56.1221 44.1858 56.1972C44.4133 56.2724 44.659 56.2711 44.8857 56.1938C45.1113 56.1202 45.3078 55.9772 45.4472 55.7853C45.5866 55.5933 45.6618 55.3622 45.662 55.125V34.875C45.662 34.5766 45.7805 34.2905 45.9915 34.0795C46.2025 33.8685 46.4886 33.75 46.787 33.75C47.0854 33.75 47.3715 33.8685 47.5825 34.0795C47.7935 34.2905 47.912 34.5766 47.912 34.875V48.375C47.912 48.6734 48.0305 48.9595 48.2415 49.1705C48.4525 49.3815 48.7386 49.5 49.037 49.5C49.3354 49.5 49.6215 49.3815 49.8325 49.1705C50.0435 48.9595 50.162 48.6734 50.162 48.375V46.125C50.162 45.8266 50.2805 45.5405 50.4915 45.3295C50.7025 45.1185 50.9886 45 51.287 45C51.5854 45 51.8715 45.1185 52.0825 45.3295C52.2935 45.5405 52.412 45.8266 52.412 46.125V48.375C52.412 48.6734 52.5305 48.9595 52.7415 49.1705C52.9525 49.3815 53.2386 49.5 53.537 49.5C53.8354 49.5 54.1215 49.3815 54.3325 49.1705C54.5435 48.9595 54.662 48.6734 54.662 48.375V46.125C54.662 45.8266 54.7805 45.5405 54.9915 45.3295C55.2025 45.1185 55.4886 45 55.787 45C56.0854 45 56.3715 45.1185 56.5825 45.3295C56.7935 45.5405 56.912 45.8266 56.912 46.125V48.375C56.912 48.6734 57.0305 48.9595 57.2415 49.1705C57.4525 49.3815 57.7386 49.5 58.037 49.5C58.3354 49.5 58.6215 49.3815 58.8325 49.1705C59.0435 48.9595 59.162 48.6734 59.162 48.375V46.125C59.162 45.8266 59.2805 45.5405 59.4915 45.3295C59.7025 45.1185 59.9886 45 60.287 45C60.5854 45 60.8715 45.1185 61.0825 45.3295C61.2935 45.5405 61.412 45.8266 61.412 46.125V60.5812ZM68.162 42.75H65.912C65.6136 42.75 65.3275 42.8685 65.1165 43.0795C64.9055 43.2905 64.787 43.5766 64.787 43.875C64.787 44.1734 64.9055 44.4595 65.1165 44.6705C65.3275 44.8815 65.6136 45 65.912 45H68.162V60.75H63.6507C63.6507 60.705 63.662 60.66 63.662 60.615V46.125C63.6593 45.2307 63.3029 44.3738 62.6705 43.7415C62.0382 43.1091 61.1813 42.7527 60.287 42.75C59.4539 42.7522 58.6516 43.0651 58.037 43.6275C57.4236 43.0632 56.6205 42.75 55.787 42.75C54.9535 42.75 54.1504 43.0632 53.537 43.6275C52.9224 43.0651 52.1201 42.7522 51.287 42.75C50.9032 42.753 50.5227 42.8215 50.162 42.9525V34.875C50.162 33.9799 49.8064 33.1214 49.1735 32.4885C48.5405 31.8556 47.6821 31.5 46.787 31.5C45.8919 31.5 45.0334 31.8556 44.4005 32.4885C43.7676 33.1214 43.412 33.9799 43.412 34.875V51.615L42.1745 49.8713C41.7908 49.3368 41.2949 48.8927 40.7215 48.5701C40.1481 48.2475 39.5111 48.0543 38.8551 48.0039C38.1991 47.9535 37.54 48.0472 36.9241 48.2785C36.3082 48.5097 35.7503 48.8729 35.2895 49.3425L34.7382 49.905C34.5602 50.0901 34.4509 50.3305 34.4283 50.5863C34.4058 50.8421 34.4715 51.0979 34.6145 51.3112L40.892 60.75H5.16199V45H40.037C40.3354 45 40.6215 44.8815 40.8325 44.6705C41.0435 44.4595 41.162 44.1734 41.162 43.875C41.162 43.5766 41.0435 43.2905 40.8325 43.0795C40.6215 42.8685 40.3354 42.75 40.037 42.75H5.16199V13.5H68.162V42.75ZM68.162 11.25H5.16199V4.5H68.162V11.25Z" fill="#59738C"/>
<path d="M9.66199 6.75H8.53699C8.23862 6.75 7.95247 6.86853 7.74149 7.07951C7.53051 7.29048 7.41199 7.57663 7.41199 7.875C7.41199 8.17337 7.53051 8.45952 7.74149 8.67049C7.95247 8.88147 8.23862 9 8.53699 9H9.66199C9.96036 9 10.2465 8.88147 10.4575 8.67049C10.6685 8.45952 10.787 8.17337 10.787 7.875C10.787 7.57663 10.6685 7.29048 10.4575 7.07951C10.2465 6.86853 9.96036 6.75 9.66199 6.75Z" fill="#59738C"/>
<path d="M15.287 6.75H14.162C13.8636 6.75 13.5775 6.86853 13.3665 7.07951C13.1555 7.29048 13.037 7.57663 13.037 7.875C13.037 8.17337 13.1555 8.45952 13.3665 8.67049C13.5775 8.88147 13.8636 9 14.162 9H15.287C15.5854 9 15.8715 8.88147 16.0825 8.67049C16.2935 8.45952 16.412 8.17337 16.412 7.875C16.412 7.57663 16.2935 7.29048 16.0825 7.07951C15.8715 6.86853 15.5854 6.75 15.287 6.75Z" fill="#59738C"/>
<path d="M20.912 6.75H19.787C19.4886 6.75 19.2025 6.86853 18.9915 7.07951C18.7805 7.29048 18.662 7.57663 18.662 7.875C18.662 8.17337 18.7805 8.45952 18.9915 8.67049C19.2025 8.88147 19.4886 9 19.787 9H20.912C21.2104 9 21.4965 8.88147 21.7075 8.67049C21.9185 8.45952 22.037 8.17337 22.037 7.875C22.037 7.57663 21.9185 7.29048 21.7075 7.07951C21.4965 6.86853 21.2104 6.75 20.912 6.75Z" fill="#59738C"/>
<path d="M65.912 39.375V16.875C65.912 16.5766 65.7935 16.2905 65.5825 16.0795C65.3715 15.8685 65.0854 15.75 64.787 15.75H8.53699C8.23862 15.75 7.95247 15.8685 7.74149 16.0795C7.53051 16.2905 7.41199 16.5766 7.41199 16.875V39.375C7.41199 39.6734 7.53051 39.9595 7.74149 40.1705C7.95247 40.3815 8.23862 40.5 8.53699 40.5H40.037C40.3354 40.5 40.6215 40.3815 40.8325 40.1705C41.0435 39.9595 41.162 39.6734 41.162 39.375C41.162 39.0766 41.0435 38.7905 40.8325 38.5795C40.6215 38.3685 40.3354 38.25 40.037 38.25H9.66199V18H63.662V38.25H53.537C53.2386 38.25 52.9525 38.3685 52.7415 38.5795C52.5305 38.7905 52.412 39.0766 52.412 39.375C52.412 39.6734 52.5305 39.9595 52.7415 40.1705C52.9525 40.3815 53.2386 40.5 53.537 40.5H64.787C65.0854 40.5 65.3715 40.3815 65.5825 40.1705C65.7935 39.9595 65.912 39.6734 65.912 39.375Z" fill="#59738C"/>
</svg>
