<svg width="125" height="92" viewBox="0 0 125 92" fill="none" xmlns="http://www.w3.org/2000/svg">
<path fill-rule="evenodd" clip-rule="evenodd" d="M53.8799 1.98825C53.9106 1.43679 54.3825 1.01465 54.934 1.04538L123.299 4.85448C123.85 4.8852 124.273 5.35715 124.242 5.90861L119.532 90.4326C119.502 90.9841 119.03 91.4062 118.478 91.3755L50.1133 87.5664C49.5618 87.5357 49.1397 87.0637 49.1704 86.5123L53.8799 1.98825ZM55.8212 3.09801L51.2231 85.6251L117.591 89.3229L122.189 6.79584L55.8212 3.09801Z" fill="#BBA390"/>
<path fill-rule="evenodd" clip-rule="evenodd" d="M49.1798 14.7848C49.3504 15.3101 49.0628 15.8742 48.5375 16.0448L30.3251 21.9579L44.1979 63.5763C44.3726 64.1002 44.0894 64.6665 43.5655 64.8412C43.0415 65.0158 42.4752 64.7327 42.3006 64.2087L28.1091 21.6342C28.0248 21.3813 28.0449 21.1053 28.1651 20.8673C28.2852 20.6293 28.4954 20.4492 28.7489 20.3669L47.9199 14.1425C48.4452 13.972 49.0093 14.2596 49.1798 14.7848Z" fill="#BBA390"/>
<path fill-rule="evenodd" clip-rule="evenodd" d="M24.7646 28.1821C24.9601 28.6987 24.6998 29.2759 24.1832 29.4713L16.0478 32.5496L44.8728 85.0699C45.1386 85.554 44.9615 86.1619 44.4773 86.4276C43.9932 86.6934 43.3853 86.5163 43.1195 86.0321L13.7407 32.5028C13.6013 32.2489 13.5789 31.9471 13.6792 31.6754C13.7794 31.4037 13.9926 31.1889 14.2634 31.0864L23.4754 27.6008C23.992 27.4053 24.5692 27.6656 24.7646 28.1821Z" fill="#BBA390"/>
<path fill-rule="evenodd" clip-rule="evenodd" d="M11.1985 41.9002C11.5195 42.3496 11.4154 42.9741 10.966 43.2951L3.21248 48.8333L35.9892 81.6101C36.3797 82.0006 36.3797 82.6338 35.9892 83.0243C35.5987 83.4148 34.9655 83.4148 34.575 83.0243L0.963551 49.4128C0.755696 49.205 0.64982 48.9162 0.674066 48.6233C0.698311 48.3303 0.850221 48.0629 1.08942 47.892L9.80349 41.6677C10.2529 41.3467 10.8775 41.4508 11.1985 41.9002Z" fill="#BBA390"/>
<path fill-rule="evenodd" clip-rule="evenodd" d="M63.7796 12.2089C63.8103 11.6575 64.2822 11.2354 64.8337 11.2661L113.559 13.9809C114.111 14.0117 114.533 14.4836 114.502 15.0351L112.868 44.3699C112.837 44.9213 112.365 45.3435 111.814 45.3127L63.088 42.5979C62.5365 42.5672 62.1144 42.0952 62.1451 41.5438L63.7796 12.2089ZM65.7209 13.3187L64.1978 40.6565L110.926 43.2601L112.45 15.9223L65.7209 13.3187Z" fill="#BBA390"/>
<path fill-rule="evenodd" clip-rule="evenodd" d="M73.3724 53.3788C73.4027 52.8273 73.8742 52.4048 74.4256 52.435L110.776 54.4268C111.327 54.457 111.75 54.9285 111.72 55.48C111.689 56.0315 111.218 56.454 110.666 56.4238L74.3162 54.432C73.7648 54.4018 73.3422 53.9302 73.3724 53.3788Z" fill="#BBA390"/>
<path fill-rule="evenodd" clip-rule="evenodd" d="M72.6255 64.336C72.6545 63.7845 73.1251 63.3609 73.6767 63.39L87.8682 64.1369C88.4197 64.1659 88.8432 64.6365 88.8142 65.1881C88.7852 65.7396 88.3146 66.1631 87.763 66.1341L73.5716 65.3872C73.02 65.3582 72.5965 64.8875 72.6255 64.336Z" fill="#BBA390"/>
<path fill-rule="evenodd" clip-rule="evenodd" d="M71.63 75.2845C71.6638 74.7333 72.138 74.3137 72.6893 74.3475L97.0887 75.8413C97.6399 75.8751 98.0594 76.3493 98.0257 76.9006C97.9919 77.4518 97.5177 77.8713 96.9664 77.8376L72.567 76.3437C72.0158 76.31 71.5963 75.8358 71.63 75.2845Z" fill="#BBA390"/>
<path fill-rule="evenodd" clip-rule="evenodd" d="M65.4079 50.202C64.1727 50.202 63.1713 51.2034 63.1713 52.4387C63.1713 53.674 64.1727 54.6753 65.4079 54.6753C66.6432 54.6753 67.6446 53.674 67.6446 52.4387C67.6446 51.2034 66.6432 50.202 65.4079 50.202ZM61.1713 52.4387C61.1713 50.0988 63.0681 48.202 65.4079 48.202C67.7478 48.202 69.6446 50.0988 69.6446 52.4387C69.6446 54.7785 67.7478 56.6753 65.4079 56.6753C63.0681 56.6753 61.1713 54.7785 61.1713 52.4387Z" fill="#BBA390"/>
<path fill-rule="evenodd" clip-rule="evenodd" d="M64.6611 73.1063C63.4258 73.1063 62.4244 74.1077 62.4244 75.343C62.4244 76.5783 63.4258 77.5796 64.6611 77.5796C65.8964 77.5796 66.8978 76.5782 66.8978 75.343C66.8978 74.1077 65.8964 73.1063 64.6611 73.1063ZM60.4244 75.343C60.4244 73.0031 62.3213 71.1063 64.6611 71.1063C67.0009 71.1063 68.8978 73.0031 68.8978 75.343C68.8978 77.6828 67.0009 79.5796 64.6611 79.5796C62.3213 79.5796 60.4244 77.6828 60.4244 75.343Z" fill="#BBA390"/>
<path fill-rule="evenodd" clip-rule="evenodd" d="M84.1492 12.3519C84.7002 12.3896 85.1162 12.8669 85.0785 13.4179L83.9019 30.5969L96.0869 31.452L97.025 15.0353C97.0565 14.4839 97.529 14.0625 98.0804 14.094C98.6318 14.1255 99.0533 14.598 99.0217 15.1494L98.0258 32.5775C98.0106 32.8446 97.889 33.0944 97.6882 33.2711C97.4875 33.4478 97.2243 33.5368 96.9575 33.518L82.766 32.5221C82.2157 32.4835 81.8006 32.0066 81.8383 31.4563L83.0832 13.2812C83.1209 12.7302 83.5982 12.3141 84.1492 12.3519Z" fill="#BBA390"/>
<path fill-rule="evenodd" clip-rule="evenodd" d="M64.6609 32.5209L64.4534 31.5426C63.9131 31.6572 63.5681 32.1881 63.6827 32.7284C63.7973 33.2685 64.3279 33.6135 64.8681 33.4992L64.8708 33.4986L64.8849 33.4957L64.947 33.4833C65.0031 33.4722 65.0881 33.456 65.1991 33.4361C65.4211 33.3964 65.7465 33.3421 66.1523 33.2857C66.9653 33.1728 68.0932 33.0526 69.353 33.0226C71.7245 32.9662 74.3816 33.2357 76.3269 34.3085L75.8622 42.6733C75.8315 43.2247 76.2537 43.6966 76.8051 43.7272C77.3566 43.7579 77.8284 43.3357 77.8591 42.7842L78.357 33.8212C78.3767 33.4677 78.2079 33.1301 77.9133 32.9337C75.4031 31.2602 71.962 30.9599 69.3054 31.0232C67.9509 31.0554 66.7447 31.1842 65.8771 31.3047C65.4426 31.3651 65.0912 31.4236 64.8463 31.4675C64.7239 31.4894 64.628 31.5077 64.5615 31.5208C64.5283 31.5273 64.5024 31.5325 64.4843 31.5362L64.4629 31.5406L64.4567 31.5419L64.4547 31.5424C64.4544 31.5424 64.4534 31.5426 64.6609 32.5209Z" fill="#BBA390"/>
</svg>
