<svg width="117" height="102" viewBox="0 0 117 102" fill="none" xmlns="http://www.w3.org/2000/svg">
<path fill-rule="evenodd" clip-rule="evenodd" d="M52.7544 18.6411C53.3035 18.7 53.701 19.1928 53.6422 19.7419L49.7687 55.9086C49.7243 56.3234 49.427 56.667 49.023 56.7707C48.6189 56.8744 48.1929 56.7164 47.9542 56.3743L30.4271 31.2485C30.1111 30.7955 30.2222 30.1722 30.6751 29.8562C31.1281 29.5402 31.7515 29.6513 32.0674 30.1042L48.0648 53.0371L51.6536 19.529C51.7124 18.9798 52.2052 18.5823 52.7544 18.6411Z" fill="#BBA390"/>
<path fill-rule="evenodd" clip-rule="evenodd" d="M11.0232 40.2909C11.5209 40.0516 12.1184 40.2612 12.3576 40.759L34.979 87.8302L63.948 82.7556C64.492 82.6603 65.0103 83.0241 65.1056 83.5681C65.2009 84.1121 64.8371 84.6303 64.2931 84.7256L34.5782 89.9309C34.137 90.0081 33.6983 89.7827 33.5043 89.379L10.555 41.6253C10.3158 41.1275 10.5254 40.5301 11.0232 40.2909Z" fill="#BBA390"/>
<path fill-rule="evenodd" clip-rule="evenodd" d="M30.6956 29.7627C31.2461 29.7186 31.7281 30.1291 31.7722 30.6796L34.2301 61.362C34.2631 61.7742 34.039 62.1643 33.6661 62.3433C33.2933 62.5223 32.8487 62.4533 32.5477 62.1697L11.0062 41.8793C10.6042 41.5007 10.5852 40.8678 10.9639 40.4658C11.3426 40.0637 11.9755 40.0448 12.3775 40.4235L32.0292 58.9339L29.7786 30.8393C29.7345 30.2888 30.145 29.8068 30.6956 29.7627Z" fill="#BBA390"/>
<path fill-rule="evenodd" clip-rule="evenodd" d="M34.233 87.9611C34.777 87.8658 35.2953 88.2296 35.3906 88.7736L36.7539 96.5561C36.8492 97.1001 36.4854 97.6183 35.9414 97.7136C35.3974 97.8089 34.8792 97.4452 34.7839 96.9011L33.4206 89.1187C33.3253 88.5747 33.689 88.0564 34.233 87.9611Z" fill="#BBA390"/>
<path fill-rule="evenodd" clip-rule="evenodd" d="M38.1989 66.4028C38.6958 66.1618 39.294 66.3691 39.5351 66.866L46.3827 80.9799C46.6238 81.4768 46.4164 82.075 45.9195 82.3161C45.4226 82.5572 44.8244 82.3498 44.5833 81.8529L37.7357 67.739C37.4946 67.2421 37.702 66.6439 38.1989 66.4028Z" fill="#BBA390"/>
<path fill-rule="evenodd" clip-rule="evenodd" d="M51.9504 62.013C52.4825 61.8648 53.0339 62.1759 53.1821 62.708L57.7661 79.1629C57.9143 79.695 57.6031 80.2464 57.0711 80.3946C56.5391 80.5428 55.9876 80.2317 55.8394 79.6996L51.2555 63.2447C51.1073 62.7127 51.4184 62.1612 51.9504 62.013Z" fill="#BBA390"/>
<path fill-rule="evenodd" clip-rule="evenodd" d="M29.1425 22.823C27.2118 23.1612 25.9208 25.0005 26.259 26.9312C26.5972 28.8618 28.4365 30.1528 30.3672 29.8146C32.2979 29.4764 33.5889 27.6371 33.2507 25.7064C32.9125 23.7757 31.0732 22.4848 29.1425 22.823ZM24.289 27.2763C23.7602 24.2576 25.7787 21.3818 28.7974 20.853C31.8161 20.3242 34.6919 22.3426 35.2207 25.3613C35.7495 28.38 33.731 31.2558 30.7123 31.7846C27.6936 32.3134 24.8178 30.2949 24.289 27.2763Z" fill="#BBA390"/>
<path fill-rule="evenodd" clip-rule="evenodd" d="M8.68518 33.6989C6.75449 34.0371 5.46353 35.8764 5.80174 37.8071C6.13994 39.7378 7.97924 41.0288 9.90993 40.6906C11.8406 40.3524 13.1316 38.5131 12.7934 36.5824C12.4552 34.6517 10.6159 33.3607 8.68518 33.6989ZM3.83173 38.1522C3.30294 35.1335 5.3214 32.2577 8.34009 31.7289C11.3588 31.2001 14.2346 33.2186 14.7634 36.2373C15.2922 39.256 13.2737 42.1318 10.255 42.6606C7.23633 43.1894 4.36053 41.1709 3.83173 38.1522Z" fill="#BBA390"/>
<path fill-rule="evenodd" clip-rule="evenodd" d="M51.4865 11.6179C49.5558 11.9561 48.2648 13.7954 48.603 15.7261C48.9412 17.6568 50.7805 18.9477 52.7112 18.6095C54.6419 18.2713 55.9329 16.432 55.5946 14.5013C55.2564 12.5706 53.4171 11.2797 51.4865 11.6179ZM46.633 16.0712C46.1042 13.0525 48.1227 10.1767 51.1414 9.64788C54.1601 9.11909 57.0359 11.1375 57.5647 14.1562C58.0934 17.1749 56.075 20.0507 53.0563 20.5795C50.0376 21.1083 47.1618 19.0899 46.633 16.0712Z" fill="#BBA390"/>
<path fill-rule="evenodd" clip-rule="evenodd" d="M34.7838 96.8999C34.6885 96.3559 35.0522 95.8377 35.5962 95.7424L65.3111 90.5371C65.8551 90.4418 66.3734 90.8056 66.4687 91.3496C66.564 91.8936 66.2002 92.4118 65.6562 92.5071L35.9413 97.7124C35.3973 97.8077 34.879 97.4439 34.7838 96.8999Z" fill="#BBA390"/>
<path fill-rule="evenodd" clip-rule="evenodd" d="M77.2068 21.6143C77.7395 21.4686 78.2894 21.7824 78.4351 22.3151L85.8683 49.5018L98.0579 25.4137C98.3073 24.9209 98.9089 24.7236 99.4017 24.973C99.8944 25.2223 100.092 25.824 99.8424 26.3167L86.4806 52.7212C86.2939 53.0903 85.8992 53.3063 85.4878 53.2647C85.0763 53.223 84.7329 52.9324 84.6238 52.5335L76.5059 22.8426C76.3602 22.3099 76.674 21.7599 77.2068 21.6143Z" fill="#BBA390"/>
<path fill-rule="evenodd" clip-rule="evenodd" d="M99.2871 24.8308C99.8365 24.8865 100.237 25.3772 100.181 25.9266L94.8304 78.6377C94.7851 79.0833 94.4492 79.4445 94.008 79.5217L64.2931 84.727C63.7491 84.8223 63.2308 84.4585 63.1355 83.9145C63.0402 83.3705 63.404 82.8523 63.948 82.757L92.917 77.6824L98.1912 25.7247C98.247 25.1752 98.7376 24.775 99.2871 24.8308Z" fill="#BBA390"/>
<path fill-rule="evenodd" clip-rule="evenodd" d="M52.6814 18.6536C53.1778 18.4116 53.7765 18.6179 54.0184 19.1144L68.7959 49.433L76.2707 22.3542C76.4177 21.8218 76.9684 21.5094 77.5007 21.6563C78.0331 21.8033 78.3455 22.354 78.1986 22.8864L70.0199 52.5151C69.9093 52.916 69.5621 53.2066 69.1479 53.2448C68.7338 53.283 68.3393 53.061 68.1571 52.6872L52.2206 19.9907C51.9786 19.4942 52.1849 18.8956 52.6814 18.6536Z" fill="#BBA390"/>
<path fill-rule="evenodd" clip-rule="evenodd" d="M93.6629 77.551C94.2069 77.4557 94.7251 77.8194 94.8204 78.3634L96.1837 86.1459C96.279 86.6899 95.9152 87.2082 95.3712 87.3034C94.8272 87.3987 94.309 87.035 94.2137 86.491L92.8504 78.7085C92.7551 78.1645 93.1189 77.6463 93.6629 77.551Z" fill="#BBA390"/>
<path fill-rule="evenodd" clip-rule="evenodd" d="M82.6049 58.623C83.1542 58.6808 83.5526 59.173 83.4948 59.7222L81.8524 75.3233C81.7946 75.8725 81.3024 76.2709 80.7532 76.2131C80.2039 76.1553 79.8056 75.6632 79.8634 75.1139L81.5057 59.5128C81.5636 58.9636 82.0557 58.5652 82.6049 58.623Z" fill="#BBA390"/>
<path fill-rule="evenodd" clip-rule="evenodd" d="M68.1803 59.1695C68.731 59.128 69.2111 59.5408 69.2525 60.0916L70.5348 77.1249C70.5763 77.6756 70.1634 78.1557 69.6127 78.1971C69.062 78.2386 68.5819 77.8257 68.5405 77.275L67.2582 60.2417C67.2167 59.691 67.6296 59.2109 68.1803 59.1695Z" fill="#BBA390"/>
<path fill-rule="evenodd" clip-rule="evenodd" d="M76.3091 14.5612C74.3784 14.8994 73.0874 16.7388 73.4256 18.6694C73.7638 20.6001 75.6031 21.8911 77.5338 21.5529C79.4645 21.2147 80.7555 19.3754 80.4173 17.4447C80.0791 15.514 78.2398 14.223 76.3091 14.5612ZM71.4556 19.0145C70.9268 15.9958 72.9453 13.12 75.964 12.5912C78.9827 12.0624 81.8585 14.0809 82.3873 17.0996C82.9161 20.1183 80.8976 22.9941 77.8789 23.5229C74.8602 24.0517 71.9844 22.0332 71.4556 19.0145Z" fill="#BBA390"/>
<path fill-rule="evenodd" clip-rule="evenodd" d="M99.245 17.8357C97.3143 18.1739 96.0233 20.0132 96.3616 21.9439C96.6998 23.8745 98.5391 25.1655 100.47 24.8273C102.4 24.4891 103.691 22.6498 103.353 20.7191C103.015 18.7884 101.176 17.4975 99.245 17.8357ZM94.3915 22.2889C93.8628 19.2703 95.8812 16.3944 98.8999 15.8657C101.919 15.3369 104.794 17.3553 105.323 20.374C105.852 23.3927 103.834 26.2685 100.815 26.7973C97.7961 27.3261 94.9203 25.3076 94.3915 22.2889Z" fill="#BBA390"/>
<path fill-rule="evenodd" clip-rule="evenodd" d="M51.4865 11.6179C49.5558 11.9561 48.2648 13.7954 48.603 15.7261C48.9412 17.6568 50.7805 18.9477 52.7112 18.6095C54.6419 18.2713 55.9329 16.432 55.5946 14.5013C55.2564 12.5706 53.4171 11.2797 51.4865 11.6179ZM46.633 16.0712C46.1042 13.0525 48.1227 10.1767 51.1414 9.64788C54.1601 9.11909 57.0359 11.1375 57.5647 14.1562C58.0934 17.1749 56.075 20.0507 53.0563 20.5795C50.0376 21.1083 47.1618 19.0899 46.633 16.0712Z" fill="#BBA390"/>
<path fill-rule="evenodd" clip-rule="evenodd" d="M64.4986 91.6958C64.4033 91.1518 64.767 90.6336 65.3111 90.5383L95.026 85.333C95.57 85.2377 96.0882 85.6015 96.1835 86.1455C96.2788 86.6895 95.9151 87.2077 95.3711 87.303L65.6561 92.5083C65.1121 92.6036 64.5939 92.2398 64.4986 91.6958Z" fill="#BBA390"/>
</svg>
