<svg width="113" height="126" viewBox="0 0 113 126" fill="none" xmlns="http://www.w3.org/2000/svg">
<path fill-rule="evenodd" clip-rule="evenodd" d="M37.6682 36.1006C34.5789 35.3862 31.4968 37.3101 30.7832 40.3961C30.0696 43.4821 31.9942 46.5636 35.0835 47.278C38.1729 47.9924 41.2549 46.0686 41.9685 42.9826C42.6821 39.8966 40.7575 36.815 37.6682 36.1006ZM28.8346 39.9455C29.7973 35.7822 33.9544 33.1891 38.1188 34.152C42.2831 35.115 44.8798 39.2699 43.9171 43.4331C42.9544 47.5964 38.7973 50.1896 34.633 49.2266C30.4686 48.2636 27.8719 44.1088 28.8346 39.9455Z" fill="#BBA390"/>
<path fill-rule="evenodd" clip-rule="evenodd" d="M29.3875 1.48591C29.9316 1.39133 30.4494 1.75575 30.544 2.29988L37.3611 41.5187C37.4557 42.0628 37.0913 42.5806 36.5472 42.6752C36.003 42.7698 35.4853 42.4053 35.3907 41.8612L28.5735 2.64239C28.479 2.09826 28.8434 1.58049 29.3875 1.48591Z" fill="#BBA390"/>
<path fill-rule="evenodd" clip-rule="evenodd" d="M65.1166 57.9193C65.4113 58.1665 65.5381 58.5607 65.4427 58.9333L62.9138 68.8162L69.6707 76.4646C69.9216 76.7485 69.9904 77.1498 69.8486 77.5011C69.7067 77.8524 69.3785 78.0934 69.0008 78.1235L58.8292 78.9352L53.8671 87.7619C53.6795 88.0955 53.318 88.2928 52.936 88.2701C52.5539 88.2473 52.2184 88.0085 52.0717 87.655L48.1556 78.2166L38.1983 75.9141C37.8276 75.8283 37.5376 75.5396 37.4503 75.1693C37.363 74.7989 37.4934 74.4111 37.7867 74.1688L45.6092 67.7072L44.5631 57.486C44.5242 57.1065 44.7046 56.7381 45.0281 56.536C45.3516 56.334 45.7618 56.3335 46.0857 56.5348L54.8171 61.9617L64.0613 57.7745C64.4117 57.6158 64.822 57.6721 65.1166 57.9193ZM62.9886 60.456L55.1556 64.004C54.8515 64.1418 54.4987 64.1187 54.2151 63.9424L46.7601 59.3088L47.6532 68.0358C47.6873 68.3682 47.5529 68.6957 47.2953 68.9086L40.6212 74.4216L49.1074 76.3839C49.422 76.4566 49.682 76.6768 49.8058 76.975L53.1311 84.9897L57.3468 77.4907C57.51 77.2004 57.807 77.0104 58.139 76.9839L66.8469 76.289L61.0643 69.7434C60.845 69.4952 60.7629 69.1544 60.845 68.8335L62.9886 60.456Z" fill="#BBA390"/>
<path fill-rule="evenodd" clip-rule="evenodd" d="M29.4027 20.874C25.7856 20.0376 21.9032 22.2866 21.0206 26.1036L14.0508 56.2448C13.597 58.2071 13.8565 60.0423 14.82 61.5852C14.8203 61.5856 14.8205 61.5861 14.8208 61.5865L45.9196 111.027C45.9272 111.039 45.9346 111.052 45.9417 111.064C47.8404 114.392 52.2882 115.421 55.4552 113.264C55.4662 113.256 55.4774 113.249 55.4887 113.242L91.7196 90.6355C95.1434 88.4992 96.1249 84.255 93.9865 80.8324L62.5682 30.5474C61.604 29.0042 60.0674 27.9649 58.1028 27.5106L29.4027 20.874ZM19.072 25.653C20.2128 20.7194 25.2009 17.8496 29.8533 18.9254L58.5534 25.562C60.9668 26.1201 62.9844 27.4391 64.2644 29.4876L95.6826 79.7727C98.4065 84.1324 97.1397 89.611 92.7783 92.3323L56.5639 114.929C52.4395 117.723 46.6952 116.395 44.2155 112.074L13.1262 62.6488L13.1246 62.6462C11.8446 60.5976 11.5444 58.2066 12.1022 55.7942L19.072 25.653Z" fill="#BBA390"/>
</svg>
